{"title":"The Three Musketeers 2011 TS XviD READNFO DTRG","uid":6769838,"size":1755595317,"categoryP":"video","categoryS":"movies","magnet":"?xt=urn:btih:79c766836d6f8847a05977eb7b751b1573f18798&amp;dn=The+Three+Musketeers+2011+TS+XviD+READNFO+DTRG&amp;tr=udp%3A%2F%2Ftracker.openbittorrent.com%3A80&amp;tr=udp%3A%2F%2Fopen.demonii.com%3A1337&amp;tr=udp%3A%2F%2Ftracker.coppersurfer.tk%3A6969&amp;tr=udp%3A%2F%2Fexodus.desync.com%3A6969","seeders":0,"leechers":1,"uploader":"SAFCukO09","files":4,"time":1319541424,"description":"Video\nID : 0\nFormat : MPEG-4 Visual\nFormat profile : Advanced Simple@L5\nFormat settings, BVOP : 2\nFormat settings, QPel : No\nFormat settings, GMC : No warppoints\nFormat settings, Matrix : Default (H.263)\nMuxing mode : Packed bitstream\nCodec ID : XVID\nCodec ID/Hint : XviD\nDuration : 1h 45mn\nBit rate : 2 070 Kbps\nWidth : 672 pixels\nHeight : 282 pixels\nDisplay aspect ratio : 2.40:1\nFrame rate : 25.000 fps\nColor space : YUV\nChroma subsampling : 4:2:0\nBit depth : 8 bits\nScan type : Progressive\nCompression mode : Lossy\nBits/(Pixel*Frame) : 0.437\nStream size : 1.52 GiB (94%)\nWriting library : XviD 64\n\nAudio\nID : 1\nFormat : MPEG Audio\nFormat version : Version 1\nFormat profile : Layer 3\nMode : Joint stereo\nCodec ID : 55\nCodec ID/Hint : MP3\nDuration : 1h 45mn\nBit rate mode : Constant\nBit rate : 128 Kbps\nChannel(s) : 2 channels\nSampling rate : 44.1 KHz\nCompression mode : Lossy\nStream size : 96.3 MiB (6%)\nAlignment : Split accross interleaves\nInterleave, duration : 40 ms (1.00 video frame)\nInterleave, preload duration : 500 ms\n\n\n\n\n\n\n\n\n &lt;a href=&quot;\nhttp://www.imdb.com/title/tt1509767/&quot; rel=&quot;nofollow&quot; target=&quot;_NEW&quot;&gt;\nhttp://www.imdb.com/title/tt1509767/&lt;/a&gt;\n\n\n\nPlot:\nThe hot-headed young D'Artagnan along with three former\nlegendary but now down on their luck Musketeers must unite\nand defeat a beautiful double agent and her villainous\nemployer from seizing the French throne\nand engulfing Europe in war.\n\n\n\n\n\n\n\n\n\n\n\n\n\n\n\n\n\nSource Used\n\nFLOPPYDISK.............Thanks\n\niLLUMiNATi ........................Thanks\n\n\nReason for READNFO ...............Is 8 secs of cam audio is used to fill in a gap where line wasnt available\n\n\nPart from that i just took my time with this one vids pretty deecent enough\n\nChanged the colours abit ,sharpened ,then contrast\n\n\nSample included so check it out 1st\n\n\nEnjoy\n\n\n\n\n\nGreetz to IMAGiNE,Flawl3ss,BDK,Ez,CreWsaDe,TaRiQ786,ETRG,BHRG,iLLUMiNATi,ViSUALiSE,MiSTERE\n","torrent":{"xt":"urn:btih:79c766836d6f8847a05977eb7b751b1573f18798","amp;dn":"The+Three+Musketeers+2011+TS+XviD+READNFO+DTRG","amp;tr":["udp%3A%2F%2Ftracker.openbittorrent.com%3A80","udp%3A%2F%2Fopen.demonii.com%3A1337","udp%3A%2F%2Ftracker.coppersurfer.tk%3A6969","udp%3A%2F%2Fexodus.desync.com%3A6969"],"infoHash":"79c766836d6f8847a05977eb7b751b1573f18798","infoHashBuffer":{"type":"Buffer","data":[121,199,102,131,109,111,136,71,160,89,119,235,123,117,27,21,115,241,135,152]},"announce":[],"urlList":[]}}